<?xml version="1.0" encoding="UTF-8"?>
<svg xmlns="http://www.w3.org/2000/svg" viewBox="0 0 800 450" font-family="system-ui, -apple-system, sans-serif">
  <rect width="800" height="450" fill="#0f1419"/>

  <!-- 제목 영역 -->
  <text x="400" y="28" text-anchor="middle" font-size="18" font-weight="bold" fill="#e2e8f0">한국 IT 5종목 상관관계 — 가짜 분산</text>
  <text x="400" y="50" text-anchor="middle" font-size="12" fill="#94a3b8">평균 ρ ≈ 0.69 → 사실상 1종목과 동일</text>

  <!-- ===== 5×5 히트맵 ===== -->
  <!-- 셀 크기 60×60, 좌상단 (x=210, y=100) -->
  <!-- 컬럼 라벨 (위, y=92) x = 210 + col*60 + 30 (셀 중심) -->

  <text x="240" y="90" text-anchor="middle" font-size="10" fill="#e2e8f0">삼성전자</text>
  <text x="300" y="90" text-anchor="middle" font-size="10" fill="#e2e8f0">SK하이닉스</text>
  <text x="360" y="90" text-anchor="middle" font-size="10" fill="#e2e8f0">카카오</text>
  <text x="420" y="90" text-anchor="middle" font-size="10" fill="#e2e8f0">네이버</text>
  <text x="480" y="90" text-anchor="middle" font-size="10" fill="#e2e8f0">LG전자</text>

  <!-- 행 라벨 (좌, x=205) y = 100 + row*60 + 30 + 4 (셀 중심 수직 중앙) -->
  <text x="200" y="134" text-anchor="end" font-size="10" fill="#e2e8f0">삼성전자</text>
  <text x="200" y="194" text-anchor="end" font-size="10" fill="#e2e8f0">SK하이닉스</text>
  <text x="200" y="254" text-anchor="end" font-size="10" fill="#e2e8f0">카카오</text>
  <text x="200" y="314" text-anchor="end" font-size="10" fill="#e2e8f0">네이버</text>
  <text x="200" y="374" text-anchor="end" font-size="10" fill="#e2e8f0">LG전자</text>

  <!-- ===== 셀 행렬 ===== -->
  <!-- 색상 매핑: ρ≥0.9 → #dc2626, ρ≥0.75 → #f59e0b, ρ≥0.6 → #fbbf24, ρ≥0.4 → #60a5fa -->
  <!-- 대각선(1.00) = #dc2626 -->

  <!-- Row 0: 삼성전자 -->
  <!-- (0,0) 1.00 → #dc2626 -->
  <rect x="210" y="100" width="58" height="58" fill="#dc2626"/>
  <text x="239" y="133" text-anchor="middle" font-size="12" font-weight="bold" fill="#e2e8f0">1.00</text>

  <!-- (0,1) 0.85 → #f59e0b -->
  <rect x="270" y="100" width="58" height="58" fill="#f59e0b"/>
  <text x="299" y="133" text-anchor="middle" font-size="12" font-weight="bold" fill="#0f1419">0.85</text>

  <!-- (0,2) 0.62 → #fbbf24 -->
  <rect x="330" y="100" width="58" height="58" fill="#fbbf24"/>
  <text x="359" y="133" text-anchor="middle" font-size="12" font-weight="bold" fill="#0f1419">0.62</text>

  <!-- (0,3) 0.65 → #fbbf24 -->
  <rect x="390" y="100" width="58" height="58" fill="#fbbf24"/>
  <text x="419" y="133" text-anchor="middle" font-size="12" font-weight="bold" fill="#0f1419">0.65</text>

  <!-- (0,4) 0.78 → #f59e0b -->
  <rect x="450" y="100" width="58" height="58" fill="#f59e0b"/>
  <text x="479" y="133" text-anchor="middle" font-size="12" font-weight="bold" fill="#0f1419">0.78</text>

  <!-- Row 1: SK하이닉스 -->
  <!-- (1,0) 0.85 → #f59e0b -->
  <rect x="210" y="160" width="58" height="58" fill="#f59e0b"/>
  <text x="239" y="193" text-anchor="middle" font-size="12" font-weight="bold" fill="#0f1419">0.85</text>

  <!-- (1,1) 1.00 → #dc2626 -->
  <rect x="270" y="160" width="58" height="58" fill="#dc2626"/>
  <text x="299" y="193" text-anchor="middle" font-size="12" font-weight="bold" fill="#e2e8f0">1.00</text>

  <!-- (1,2) 0.60 → #fbbf24 -->
  <rect x="330" y="160" width="58" height="58" fill="#fbbf24"/>
  <text x="359" y="193" text-anchor="middle" font-size="12" font-weight="bold" fill="#0f1419">0.60</text>

  <!-- (1,3) 0.63 → #fbbf24 -->
  <rect x="390" y="160" width="58" height="58" fill="#fbbf24"/>
  <text x="419" y="193" text-anchor="middle" font-size="12" font-weight="bold" fill="#0f1419">0.63</text>

  <!-- (1,4) 0.74 → #f59e0b -->
  <rect x="450" y="160" width="58" height="58" fill="#f59e0b"/>
  <text x="479" y="193" text-anchor="middle" font-size="12" font-weight="bold" fill="#0f1419">0.74</text>

  <!-- Row 2: 카카오 -->
  <!-- (2,0) 0.62 → #fbbf24 -->
  <rect x="210" y="220" width="58" height="58" fill="#fbbf24"/>
  <text x="239" y="253" text-anchor="middle" font-size="12" font-weight="bold" fill="#0f1419">0.62</text>

  <!-- (2,1) 0.60 → #fbbf24 -->
  <rect x="270" y="220" width="58" height="58" fill="#fbbf24"/>
  <text x="299" y="253" text-anchor="middle" font-size="12" font-weight="bold" fill="#0f1419">0.60</text>

  <!-- (2,2) 1.00 → #dc2626 -->
  <rect x="330" y="220" width="58" height="58" fill="#dc2626"/>
  <text x="359" y="253" text-anchor="middle" font-size="12" font-weight="bold" fill="#e2e8f0">1.00</text>

  <!-- (2,3) 0.82 → #f59e0b -->
  <rect x="390" y="220" width="58" height="58" fill="#f59e0b"/>
  <text x="419" y="253" text-anchor="middle" font-size="12" font-weight="bold" fill="#0f1419">0.82</text>

  <!-- (2,4) 0.55 → #fbbf24 -->
  <rect x="450" y="220" width="58" height="58" fill="#fbbf24"/>
  <text x="479" y="253" text-anchor="middle" font-size="12" font-weight="bold" fill="#0f1419">0.55</text>

  <!-- Row 3: 네이버 -->
  <!-- (3,0) 0.65 → #fbbf24 -->
  <rect x="210" y="280" width="58" height="58" fill="#fbbf24"/>
  <text x="239" y="313" text-anchor="middle" font-size="12" font-weight="bold" fill="#0f1419">0.65</text>

  <!-- (3,1) 0.63 → #fbbf24 -->
  <rect x="270" y="280" width="58" height="58" fill="#fbbf24"/>
  <text x="299" y="313" text-anchor="middle" font-size="12" font-weight="bold" fill="#0f1419">0.63</text>

  <!-- (3,2) 0.82 → #f59e0b -->
  <rect x="330" y="280" width="58" height="58" fill="#f59e0b"/>
  <text x="359" y="313" text-anchor="middle" font-size="12" font-weight="bold" fill="#0f1419">0.82</text>

  <!-- (3,3) 1.00 → #dc2626 -->
  <rect x="390" y="280" width="58" height="58" fill="#dc2626"/>
  <text x="419" y="313" text-anchor="middle" font-size="12" font-weight="bold" fill="#e2e8f0">1.00</text>

  <!-- (3,4) 0.58 → #fbbf24 -->
  <rect x="450" y="280" width="58" height="58" fill="#fbbf24"/>
  <text x="479" y="313" text-anchor="middle" font-size="12" font-weight="bold" fill="#0f1419">0.58</text>

  <!-- Row 4: LG전자 -->
  <!-- (4,0) 0.78 → #f59e0b -->
  <rect x="210" y="340" width="58" height="58" fill="#f59e0b"/>
  <text x="239" y="373" text-anchor="middle" font-size="12" font-weight="bold" fill="#0f1419">0.78</text>

  <!-- (4,1) 0.74 → #f59e0b -->
  <rect x="270" y="340" width="58" height="58" fill="#f59e0b"/>
  <text x="299" y="373" text-anchor="middle" font-size="12" font-weight="bold" fill="#0f1419">0.74</text>

  <!-- (4,2) 0.55 → #fbbf24 -->
  <rect x="330" y="340" width="58" height="58" fill="#fbbf24"/>
  <text x="359" y="373" text-anchor="middle" font-size="12" font-weight="bold" fill="#0f1419">0.55</text>

  <!-- (4,3) 0.58 → #fbbf24 -->
  <rect x="390" y="340" width="58" height="58" fill="#fbbf24"/>
  <text x="419" y="373" text-anchor="middle" font-size="12" font-weight="bold" fill="#0f1419">0.58</text>

  <!-- (4,4) 1.00 → #dc2626 -->
  <rect x="450" y="340" width="58" height="58" fill="#dc2626"/>
  <text x="479" y="373" text-anchor="middle" font-size="12" font-weight="bold" fill="#e2e8f0">1.00</text>

  <!-- ===== 우측 컬러 범례 ===== -->
  <!-- 세로 그래디언트 (y=100~400, h=300) -->
  <defs>
    <linearGradient id="legend-grad" x1="0" y1="0" x2="0" y2="1">
      <stop offset="0%" stop-color="#dc2626"/>
      <stop offset="33%" stop-color="#f59e0b"/>
      <stop offset="66%" stop-color="#fbbf24"/>
      <stop offset="100%" stop-color="#60a5fa"/>
    </linearGradient>
  </defs>

  <rect x="550" y="100" width="22" height="298" fill="url(#legend-grad)" rx="3"/>
  <rect x="550" y="100" width="22" height="298" fill="none" stroke="#2d3748" stroke-width="1" rx="3"/>

  <!-- 범례 헤더 -->
  <text x="561" y="92" text-anchor="middle" font-size="14" font-weight="bold" fill="#e2e8f0">ρ</text>

  <!-- 범례 라벨 -->
  <text x="580" y="104" font-size="11" fill="#e2e8f0">1.0</text>
  <text x="580" y="200" font-size="11" fill="#e2e8f0">0.8</text>
  <text x="580" y="297" font-size="11" fill="#e2e8f0">0.6</text>
  <text x="580" y="401" font-size="11" fill="#60a5fa">0.4</text>

  <!-- 범례 눈금선 -->
  <line x1="549" y1="100" x2="576" y2="100" stroke="#e2e8f0" stroke-width="1"/>
  <line x1="549" y1="198" x2="576" y2="198" stroke="#e2e8f0" stroke-width="1"/>
  <line x1="549" y1="297" x2="576" y2="297" stroke="#e2e8f0" stroke-width="1"/>
  <line x1="549" y1="398" x2="576" y2="398" stroke="#60a5fa" stroke-width="1"/>

  <!-- 색상 범례 텍스트 -->
  <rect x="620" y="120" width="12" height="12" fill="#dc2626" rx="2"/>
  <text x="638" y="131" font-size="10" fill="#94a3b8">≥0.9 매우 높음</text>
  <rect x="620" y="142" width="12" height="12" fill="#f59e0b" rx="2"/>
  <text x="638" y="153" font-size="10" fill="#94a3b8">≥0.75 높음</text>
  <rect x="620" y="164" width="12" height="12" fill="#fbbf24" rx="2"/>
  <text x="638" y="175" font-size="10" fill="#94a3b8">≥0.6 보통</text>
  <rect x="620" y="186" width="12" height="12" fill="#60a5fa" rx="2"/>
  <text x="638" y="197" font-size="10" fill="#94a3b8">≥0.4 낮음</text>

  <!-- 캡션 -->
  <text x="370" y="435" text-anchor="middle" font-size="11" fill="#94a3b8">5종목 보유해도 상관계수 0.7+ → 1종목 효과</text>
</svg>
